<svg width="1546" height="965" viewBox="0 0 1546 965" fill="none" xmlns="http://www.w3.org/2000/svg">
<path d="M1210.28 348.55L1130.02 422.027V401.954H840.839V685.999H719.561V401.954H505.028V300.667H1130.02V278L1210.28 348.55Z" fill="#1A202C"/>
<path d="M336 685.999V300.667H512.099C538.933 300.667 562.786 306.355 583.657 317.731C604.528 329.108 620.926 344.705 632.853 364.522C644.779 384.339 650.742 407.092 650.742 432.781C650.742 459.57 644.779 483.424 632.853 504.342C620.926 525.26 604.528 541.775 583.657 553.885C562.786 565.629 538.933 571.5 512.099 571.5H456.754V685.999H336ZM454.517 470.213H489.737C496.818 470.213 503.154 468.928 508.745 466.36C514.335 463.424 518.621 459.387 521.603 454.249C524.957 449.111 526.634 442.689 526.634 434.983C526.634 427.276 524.957 421.037 521.603 416.266C518.621 411.496 514.335 408.009 508.745 405.807C503.154 403.238 496.818 401.954 489.737 401.954H454.517V470.213Z" fill="#1A202C"/>
<path d="M1010.83 408.011C1010.13 409.662 1009.78 411.534 1009.78 413.627C1009.78 418.201 1011.83 422.072 1015.94 425.239C1020.42 428.054 1025.83 430.519 1032.18 432.63C1038.9 434.741 1045.44 436.501 1051.78 437.908C1058.5 438.964 1064.11 439.843 1068.59 440.547C1089.12 444.066 1107.98 448.993 1125.15 455.327C1142.33 461.309 1157.26 469.051 1169.96 478.553C1183.03 487.702 1192.92 499.315 1199.64 513.391C1206.74 527.115 1210.28 543.479 1210.28 562.481C1210.28 589.577 1203 612.275 1188.44 630.574C1174.25 648.873 1155.02 662.773 1130.75 672.274C1106.48 681.424 1079.41 685.999 1049.54 685.999C1020.05 685.999 993.909 683.008 971.133 677.025C948.73 670.691 928.941 661.893 911.766 650.633C894.964 639.372 879.84 626.176 866.398 611.044L936.408 537.145C955.077 559.666 974.494 574.622 994.656 582.012C1015.19 589.05 1034.42 592.568 1052.34 592.568C1059.44 592.568 1065.79 592.041 1071.39 590.985C1076.99 589.578 1081.28 587.466 1084.27 584.651C1087.25 581.836 1088.75 577.964 1088.75 573.038C1088.75 568.464 1087.07 564.593 1083.71 561.426C1080.72 558.259 1076.61 555.619 1071.39 553.508C1066.16 551.045 1060.37 549.109 1054.02 547.701C1048.05 545.942 1042.08 544.534 1036.1 543.479C1030.5 542.423 1025.46 541.367 1020.98 540.312C998.577 535.385 978.974 529.402 962.172 522.364C945.37 515.326 931.367 506.881 920.166 497.027C908.965 487.174 900.564 475.913 894.963 463.245C889.736 450.577 887.122 436.325 887.122 420.489C887.122 416.241 887.366 412.081 887.847 408.011H1010.83Z" fill="#1A202C"/>
</svg>
