<svg width="1546" height="1056" viewBox="0 0 1546 1056" fill="none" xmlns="http://www.w3.org/2000/svg">
<path opacity="0.5" d="M1442.37 567.633V513.859H1446.45V567.633H1442.37ZM1432.17 528.955V525.202H1457.87V528.955H1432.17Z" fill="black"/>
<path opacity="0.5" d="M1390.42 567.634V525.202H1394.34L1394.75 534.178H1394.26C1394.85 532.383 1395.94 530.751 1397.52 529.282C1399.1 527.759 1400.97 526.562 1403.15 525.692C1405.38 524.767 1407.72 524.304 1410.17 524.304C1413.16 524.304 1415.69 524.93 1417.76 526.181C1419.88 527.432 1421.46 529.364 1422.49 531.975C1423.58 534.586 1424.12 537.904 1424.12 541.93V567.634H1420.04V542.093C1420.04 538.938 1419.61 536.354 1418.74 534.341C1417.92 532.274 1416.7 530.751 1415.06 529.772C1413.43 528.738 1411.39 528.221 1408.94 528.221C1406.82 528.221 1404.89 528.602 1403.15 529.364C1401.41 530.071 1399.89 531.05 1398.58 532.301C1397.28 533.552 1396.27 534.994 1395.56 536.626C1394.85 538.204 1394.5 539.89 1394.5 541.685V567.634H1392.46C1392.41 567.634 1392.22 567.634 1391.89 567.634C1391.62 567.634 1391.13 567.634 1390.42 567.634Z" fill="black"/>
<path opacity="0.5" d="M1364.06 568.45C1359.98 568.45 1356.34 567.525 1353.13 565.675C1349.97 563.826 1347.5 561.242 1345.7 557.923C1343.91 554.605 1343.01 550.743 1343.01 546.336C1343.01 543.127 1343.5 540.189 1344.48 537.524C1345.51 534.858 1346.93 532.546 1348.72 530.588C1350.52 528.575 1352.66 527.024 1355.17 525.936C1357.72 524.848 1360.5 524.304 1363.49 524.304C1366.43 524.304 1369.07 524.794 1371.41 525.773C1373.8 526.752 1375.81 528.167 1377.44 530.016C1379.08 531.812 1380.3 533.96 1381.12 536.463C1381.93 538.911 1382.29 541.631 1382.18 544.623L1382.1 546.826H1346.03V543.072H1379.89L1378.1 544.541V542.583C1378.1 540.407 1377.55 538.231 1376.46 536.055C1375.43 533.879 1373.83 532.056 1371.65 530.588C1369.47 529.119 1366.73 528.384 1363.41 528.384C1360.31 528.384 1357.53 529.064 1355.09 530.424C1352.69 531.784 1350.79 533.77 1349.37 536.381C1348.01 538.992 1347.33 542.229 1347.33 546.092C1347.33 549.791 1348.01 553.028 1349.37 555.802C1350.73 558.522 1352.69 560.643 1355.25 562.167C1357.86 563.635 1361.04 564.37 1364.8 564.37C1366.81 564.37 1368.88 564.043 1371 563.391C1373.12 562.738 1375.51 561.323 1378.18 559.147L1380.3 562.167C1379.1 563.309 1377.69 564.37 1376.06 565.349C1374.42 566.274 1372.6 567.035 1370.59 567.634C1368.58 568.178 1366.4 568.45 1364.06 568.45Z" fill="black"/>
<path opacity="0.5" d="M1272.8 567.634V525.202H1276.72L1277.13 535.484L1276.15 535.32C1276.64 533.58 1277.4 532.029 1278.43 530.669C1279.52 529.309 1280.77 528.167 1282.19 527.242C1283.66 526.263 1285.26 525.528 1287 525.039C1288.74 524.549 1290.59 524.304 1292.55 524.304C1294.62 524.304 1296.49 524.658 1298.18 525.365C1299.92 526.072 1301.42 527.351 1302.67 529.2C1303.92 531.05 1304.9 533.661 1305.61 537.034L1303.97 535.892L1304.55 534.504C1305.09 533.199 1305.88 531.948 1306.91 530.751C1307.95 529.5 1309.17 528.412 1310.58 527.487C1312 526.508 1313.58 525.746 1315.32 525.202C1317.11 524.604 1319.02 524.304 1321.03 524.304C1323.86 524.304 1326.28 524.93 1328.29 526.181C1330.3 527.432 1331.83 529.364 1332.86 531.975C1333.95 534.586 1334.49 537.904 1334.49 541.93V567.634H1330.41V542.093C1330.41 538.938 1330 536.354 1329.19 534.341C1328.43 532.274 1327.26 530.751 1325.68 529.772C1324.16 528.738 1322.25 528.221 1319.97 528.221C1317.85 528.221 1315.92 528.602 1314.17 529.364C1312.43 530.071 1310.94 531.05 1309.69 532.301C1308.44 533.552 1307.46 534.994 1306.75 536.626C1306.04 538.204 1305.69 539.89 1305.69 541.685V567.634H1301.61V542.093C1301.61 538.938 1301.2 536.354 1300.38 534.341C1299.62 532.274 1298.45 530.751 1296.88 529.772C1295.3 528.738 1293.37 528.221 1291.08 528.221C1289.01 528.221 1287.11 528.602 1285.37 529.364C1283.63 530.071 1282.13 531.05 1280.88 532.301C1279.63 533.552 1278.65 534.994 1277.94 536.626C1277.24 538.204 1276.88 539.89 1276.88 541.685V567.634H1272.8Z" fill="black"/>
<path opacity="0.5" d="M1246.44 568.45C1242.36 568.45 1238.72 567.525 1235.51 565.675C1232.35 563.826 1229.88 561.242 1228.08 557.923C1226.29 554.605 1225.39 550.743 1225.39 546.336C1225.39 543.127 1225.88 540.189 1226.86 537.524C1227.89 534.858 1229.31 532.546 1231.1 530.588C1232.9 528.575 1235.05 527.024 1237.55 525.936C1240.11 524.848 1242.88 524.304 1245.87 524.304C1248.81 524.304 1251.45 524.794 1253.79 525.773C1256.18 526.752 1258.19 528.167 1259.83 530.016C1261.46 531.812 1262.68 533.96 1263.5 536.463C1264.31 538.911 1264.67 541.631 1264.56 544.623L1264.48 546.826H1228.41V543.072H1262.27L1260.48 544.541V542.583C1260.48 540.407 1259.93 538.231 1258.85 536.055C1257.81 533.879 1256.21 532.056 1254.03 530.588C1251.86 529.119 1249.11 528.384 1245.79 528.384C1242.69 528.384 1239.92 529.064 1237.47 530.424C1235.07 531.784 1233.17 533.77 1231.76 536.381C1230.4 538.992 1229.72 542.229 1229.72 546.092C1229.72 549.791 1230.4 553.028 1231.76 555.802C1233.12 558.522 1235.07 560.643 1237.63 562.167C1240.24 563.635 1243.42 564.37 1247.18 564.37C1249.19 564.37 1251.26 564.043 1253.38 563.391C1255.5 562.738 1257.89 561.323 1260.56 559.147L1262.68 562.167C1261.48 563.309 1260.07 564.37 1258.44 565.349C1256.81 566.274 1254.98 567.035 1252.97 567.634C1250.96 568.178 1248.78 568.45 1246.44 568.45Z" fill="black"/>
<path opacity="0.5" d="M1202.44 567.634V525.202H1206.36L1206.76 534.668H1206.19C1206.79 532.872 1207.72 531.186 1208.97 529.608C1210.22 528.031 1211.74 526.752 1213.54 525.773C1215.39 524.794 1217.51 524.304 1219.9 524.304C1220.83 524.304 1221.67 524.386 1222.43 524.549C1223.25 524.658 1223.98 524.794 1224.63 524.957L1223.41 529.69C1222.65 529.364 1221.91 529.146 1221.21 529.037C1220.5 528.928 1219.87 528.874 1219.33 528.874C1217.15 528.874 1215.25 529.255 1213.62 530.016C1212.04 530.778 1210.71 531.839 1209.62 533.199C1208.59 534.504 1207.8 536 1207.25 537.687C1206.76 539.373 1206.52 541.141 1206.52 542.991V567.634H1202.44Z" fill="black"/>
<path opacity="0.5" d="M1172.04 568.45C1168.56 568.45 1165.67 567.824 1163.39 566.573C1161.16 565.322 1159.47 563.418 1158.33 560.861C1157.24 558.25 1156.7 554.931 1156.7 550.906V525.202H1160.78V550.743C1160.78 553.898 1161.18 556.509 1162 558.576C1162.82 560.589 1164.07 562.085 1165.75 563.064C1167.44 564.043 1169.56 564.533 1172.12 564.533C1174.13 564.533 1176.01 564.179 1177.75 563.472C1179.49 562.711 1181.01 561.731 1182.32 560.535C1183.62 559.283 1184.63 557.869 1185.34 556.291C1186.1 554.659 1186.48 552.946 1186.48 551.151V525.202H1190.56V567.634H1186.64L1186.24 558.658H1186.73C1186.13 560.453 1185.07 562.085 1183.54 563.554C1182.02 565.023 1180.22 566.219 1178.16 567.144C1176.14 568.015 1174.1 568.45 1172.04 568.45Z" fill="black"/>
<path opacity="0.5" d="M1132.33 568.45C1128.25 568.45 1124.61 567.498 1121.4 565.594C1118.24 563.69 1115.74 561.079 1113.89 557.76C1112.1 554.442 1111.2 550.634 1111.2 546.336C1111.2 542.039 1112.1 538.231 1113.89 534.912C1115.74 531.594 1118.27 529.01 1121.48 527.16C1124.69 525.256 1128.39 524.304 1132.58 524.304C1136.06 524.304 1139.21 524.984 1142.04 526.344C1144.93 527.704 1147.32 529.608 1149.22 532.056L1146.61 535.239C1145.42 533.77 1144.06 532.546 1142.53 531.567C1141.01 530.533 1139.38 529.744 1137.64 529.2C1135.9 528.656 1134.1 528.384 1132.25 528.384C1129.04 528.384 1126.19 529.173 1123.68 530.751C1121.18 532.274 1119.2 534.396 1117.73 537.116C1116.26 539.781 1115.52 542.855 1115.52 546.336C1115.52 549.818 1116.23 552.919 1117.65 555.639C1119.11 558.359 1121.1 560.507 1123.6 562.085C1126.1 563.608 1128.91 564.37 1132.01 564.37C1133.8 564.37 1135.57 564.098 1137.31 563.554C1139.05 563.01 1140.68 562.248 1142.21 561.269C1143.73 560.235 1145.12 558.984 1146.37 557.515L1148.98 560.698C1147.02 563.146 1144.55 565.05 1141.55 566.41C1138.62 567.77 1135.54 568.45 1132.33 568.45Z" fill="black"/>
<path opacity="0.5" d="M1084.22 568.45C1079.98 568.45 1076.2 567.498 1072.88 565.594C1069.61 563.69 1067.03 561.051 1065.12 557.679C1063.28 554.306 1062.35 550.471 1062.35 546.173C1062.35 541.93 1063.28 538.176 1065.12 534.912C1067.03 531.594 1069.61 529.01 1072.88 527.16C1076.2 525.256 1079.98 524.304 1084.22 524.304C1088.46 524.304 1092.22 525.256 1095.48 527.16C1098.8 529.01 1101.38 531.594 1103.23 534.912C1105.08 538.176 1106.01 541.93 1106.01 546.173C1106.01 550.471 1105.08 554.306 1103.23 557.679C1101.38 561.051 1098.8 563.69 1095.48 565.594C1092.22 567.498 1088.46 568.45 1084.22 568.45ZM1084.22 564.37C1087.59 564.37 1090.58 563.581 1093.2 562.003C1095.86 560.426 1097.93 558.277 1099.4 555.557C1100.92 552.837 1101.68 549.709 1101.68 546.173C1101.68 542.746 1100.92 539.7 1099.4 537.034C1097.93 534.314 1095.86 532.192 1093.2 530.669C1090.58 529.146 1087.59 528.384 1084.22 528.384C1080.79 528.384 1077.75 529.146 1075.08 530.669C1072.47 532.192 1070.4 534.314 1068.88 537.034C1067.41 539.7 1066.68 542.746 1066.68 546.173C1066.68 549.709 1067.41 552.837 1068.88 555.557C1070.4 558.277 1072.47 560.426 1075.08 562.003C1077.75 563.581 1080.79 564.37 1084.22 564.37Z" fill="black"/>
<path opacity="0.5" d="M1039.4 567.634V525.202H1043.32L1043.72 534.668H1043.15C1043.75 532.872 1044.68 531.186 1045.93 529.608C1047.18 528.031 1048.7 526.752 1050.5 525.773C1052.35 524.794 1054.47 524.304 1056.86 524.304C1057.79 524.304 1058.63 524.386 1059.39 524.549C1060.21 524.658 1060.94 524.794 1061.59 524.957L1060.37 529.69C1059.61 529.364 1058.87 529.146 1058.17 529.037C1057.46 528.928 1056.83 528.874 1056.29 528.874C1054.11 528.874 1052.21 529.255 1050.58 530.016C1049 530.778 1047.67 531.839 1046.58 533.199C1045.55 534.504 1044.76 536 1044.21 537.687C1043.72 539.373 1043.48 541.141 1043.48 542.991V567.634H1039.4Z" fill="black"/>
<path opacity="0.5" d="M992.37 567.634V510.514H1014.32C1017.2 510.514 1019.76 511.221 1021.99 512.636C1024.28 514.05 1026.07 516.008 1027.38 518.511C1028.68 520.959 1029.34 523.787 1029.34 526.997C1029.34 530.424 1028.68 533.471 1027.38 536.136C1026.07 538.747 1024.28 540.815 1021.99 542.338C1019.76 543.807 1017.2 544.541 1014.32 544.541H996.45V567.634H992.37ZM996.45 540.461H1015.06C1016.96 540.461 1018.65 539.89 1020.11 538.747C1021.64 537.551 1022.83 535.946 1023.7 533.933C1024.58 531.866 1025.01 529.499 1025.01 526.834C1025.01 524.495 1024.58 522.4 1023.7 520.551C1022.83 518.701 1021.64 517.26 1020.11 516.226C1018.65 515.138 1016.96 514.594 1015.06 514.594H996.45V540.461Z" fill="black"/>
<path opacity="0.5" d="M1305.56 731.649C1301.86 731.649 1298.57 730.942 1295.69 729.528C1292.8 728.059 1290.6 726.291 1289.08 724.224L1292.18 721.531C1293.65 723.489 1295.55 725.013 1297.89 726.101C1300.23 727.134 1302.87 727.651 1305.8 727.651C1307.44 727.651 1308.93 727.488 1310.29 727.161C1311.65 726.781 1312.79 726.264 1313.72 725.611C1314.7 724.958 1315.46 724.169 1316 723.245C1316.55 722.265 1316.82 721.177 1316.82 719.981C1316.82 717.859 1315.81 716.064 1313.8 714.595C1312.88 713.942 1311.71 713.344 1310.29 712.8C1308.88 712.256 1307.22 711.712 1305.31 711.168C1302.43 710.297 1299.98 709.481 1297.97 708.72C1295.96 707.958 1294.35 707.006 1293.16 705.864C1292.29 704.939 1291.63 703.96 1291.2 702.926C1290.76 701.838 1290.54 700.669 1290.54 699.418C1290.54 697.677 1290.9 696.099 1291.61 694.685C1292.31 693.216 1293.32 691.938 1294.62 690.85C1295.93 689.762 1297.45 688.946 1299.19 688.402C1300.94 687.803 1302.87 687.504 1304.99 687.504C1307 687.504 1308.99 687.803 1310.94 688.402C1312.9 688.946 1314.73 689.734 1316.41 690.768C1318.1 691.802 1319.57 692.998 1320.82 694.358L1318.04 697.378C1316.96 696.181 1315.76 695.12 1314.45 694.195C1313.2 693.27 1311.82 692.563 1310.29 692.074C1308.77 691.53 1307.08 691.258 1305.23 691.258C1303.76 691.258 1302.38 691.448 1301.07 691.829C1299.82 692.21 1298.73 692.781 1297.81 693.542C1296.88 694.25 1296.15 695.093 1295.6 696.072C1295.11 696.997 1294.87 698.03 1294.87 699.173C1294.87 700.043 1295.03 700.832 1295.36 701.539C1295.69 702.192 1296.2 702.817 1296.91 703.416C1297.83 704.177 1299.06 704.83 1300.58 705.374C1302.16 705.918 1304.09 706.517 1306.38 707.169C1308.44 707.713 1310.26 708.257 1311.84 708.801C1313.42 709.345 1314.78 709.998 1315.92 710.76C1317.66 711.848 1318.94 713.126 1319.76 714.595C1320.63 716.064 1321.06 717.75 1321.06 719.654C1321.06 721.993 1320.41 724.061 1319.1 725.856C1317.8 727.651 1315.98 729.065 1313.64 730.099C1311.3 731.133 1308.61 731.649 1305.56 731.649Z" fill="black"/>
<path opacity="0.5" d="M1246.27 730.833V688.402H1250.18L1250.59 697.378H1250.1C1250.7 695.582 1251.79 693.95 1253.37 692.482C1254.94 690.958 1256.82 689.762 1259 688.891C1261.23 687.966 1263.57 687.504 1266.01 687.504C1269.01 687.504 1271.54 688.13 1273.6 689.381C1275.72 690.632 1277.3 692.563 1278.34 695.174C1279.42 697.786 1279.97 701.104 1279.97 705.129V730.833H1275.89V705.293C1275.89 702.138 1275.45 699.554 1274.58 697.541C1273.77 695.474 1272.54 693.95 1270.91 692.971C1269.28 691.938 1267.24 691.421 1264.79 691.421C1262.67 691.421 1260.74 691.802 1259 692.563C1257.26 693.27 1255.73 694.25 1254.43 695.501C1253.12 696.752 1252.12 698.194 1251.41 699.826C1250.7 701.403 1250.35 703.089 1250.35 704.885V730.833H1248.31C1248.25 730.833 1248.06 730.833 1247.74 730.833C1247.46 730.833 1246.97 730.833 1246.27 730.833Z" fill="black"/>
<path opacity="0.5" d="M1215.94 731.649C1211.7 731.649 1207.92 730.697 1204.6 728.793C1201.34 726.889 1198.75 724.251 1196.85 720.878C1195 717.505 1194.07 713.67 1194.07 709.373C1194.07 705.129 1195 701.376 1196.85 698.112C1198.75 694.794 1201.34 692.21 1204.6 690.36C1207.92 688.456 1211.7 687.504 1215.94 687.504C1220.19 687.504 1223.94 688.456 1227.2 690.36C1230.52 692.21 1233.11 694.794 1234.95 698.112C1236.8 701.376 1237.73 705.129 1237.73 709.373C1237.73 713.67 1236.8 717.505 1234.95 720.878C1233.11 724.251 1230.52 726.889 1227.2 728.793C1223.94 730.697 1220.19 731.649 1215.94 731.649ZM1215.94 727.569C1219.32 727.569 1222.31 726.781 1224.92 725.203C1227.58 723.625 1229.65 721.477 1231.12 718.757C1232.64 716.037 1233.4 712.909 1233.4 709.373C1233.4 705.945 1232.64 702.899 1231.12 700.234C1229.65 697.514 1227.58 695.392 1224.92 693.869C1222.31 692.346 1219.32 691.584 1215.94 691.584C1212.52 691.584 1209.47 692.346 1206.8 693.869C1204.19 695.392 1202.12 697.514 1200.6 700.234C1199.13 702.899 1198.4 705.945 1198.4 709.373C1198.4 712.909 1199.13 716.037 1200.6 718.757C1202.12 721.477 1204.19 723.625 1206.8 725.203C1209.47 726.781 1212.52 727.569 1215.94 727.569Z" fill="black"/>
<path opacity="0.5" d="M1179.53 730.833V688.401H1183.61V730.833H1179.53ZM1181.57 679.507C1180.38 679.507 1179.45 679.181 1178.8 678.528C1178.15 677.875 1177.82 676.977 1177.82 675.835C1177.82 674.747 1178.15 673.877 1178.8 673.224C1179.45 672.517 1180.38 672.163 1181.57 672.163C1182.77 672.163 1183.7 672.489 1184.35 673.142C1185 673.795 1185.33 674.693 1185.33 675.835C1185.33 676.923 1185 677.821 1184.35 678.528C1183.7 679.181 1182.77 679.507 1181.57 679.507Z" fill="black"/>
<path opacity="0.5" d="M1154.78 730.833V677.059H1158.86V730.833H1154.78ZM1144.58 692.155V688.401H1170.28V692.155H1144.58Z" fill="black"/>
<path opacity="0.5" d="M1117.93 731.649C1114.45 731.649 1111.57 731.024 1109.28 729.773C1107.05 728.521 1105.36 726.617 1104.22 724.061C1103.13 721.449 1102.59 718.131 1102.59 714.105V688.402H1106.67V713.942C1106.67 717.097 1107.08 719.709 1107.89 721.776C1108.71 723.789 1109.96 725.285 1111.65 726.264C1113.33 727.243 1115.46 727.733 1118.01 727.733C1120.02 727.733 1121.9 727.379 1123.64 726.672C1125.38 725.91 1126.91 724.931 1128.21 723.734C1129.52 722.483 1130.52 721.069 1131.23 719.491C1131.99 717.859 1132.37 716.145 1132.37 714.35V688.402H1136.45V730.833H1132.54L1132.13 721.857H1132.62C1132.02 723.653 1130.96 725.285 1129.44 726.753C1127.91 728.222 1126.12 729.419 1124.05 730.344C1122.04 731.214 1120 731.649 1117.93 731.649Z" fill="black"/>
<path opacity="0.5" d="M1086.9 730.833V670.449H1090.98V730.833H1086.9Z" fill="black"/>
<path opacity="0.5" d="M1056.41 731.649C1052.17 731.649 1048.38 730.697 1045.07 728.793C1041.8 726.889 1039.22 724.251 1037.31 720.878C1035.46 717.505 1034.54 713.67 1034.54 709.373C1034.54 705.129 1035.46 701.376 1037.31 698.112C1039.22 694.794 1041.8 692.21 1045.07 690.36C1048.38 688.456 1052.17 687.504 1056.41 687.504C1060.65 687.504 1064.41 688.456 1067.67 690.36C1070.99 692.21 1073.57 694.794 1075.42 698.112C1077.27 701.376 1078.2 705.129 1078.2 709.373C1078.2 713.67 1077.27 717.505 1075.42 720.878C1073.57 724.251 1070.99 726.889 1067.67 728.793C1064.41 730.697 1060.65 731.649 1056.41 731.649ZM1056.41 727.569C1059.78 727.569 1062.77 726.781 1065.38 725.203C1068.05 723.625 1070.12 721.477 1071.59 718.757C1073.11 716.037 1073.87 712.909 1073.87 709.373C1073.87 705.945 1073.11 702.899 1071.59 700.234C1070.12 697.514 1068.05 695.392 1065.38 693.869C1062.77 692.346 1059.78 691.584 1056.41 691.584C1052.98 691.584 1049.93 692.346 1047.27 693.869C1044.66 695.392 1042.59 697.514 1041.07 700.234C1039.6 702.899 1038.86 705.945 1038.86 709.373C1038.86 712.909 1039.6 716.037 1041.07 718.757C1042.59 721.477 1044.66 723.625 1047.27 725.203C1049.93 726.781 1052.98 727.569 1056.41 727.569Z" fill="black"/>
<path opacity="0.5" d="M1008.12 731.649C1005.4 731.649 1002.79 731.241 1000.29 730.425C997.838 729.609 995.553 728.412 993.432 726.835C991.364 725.203 989.542 723.217 987.964 720.878L990.902 717.859C993.296 721.34 995.961 723.843 998.899 725.366C1001.84 726.835 1004.96 727.569 1008.28 727.569C1011.17 727.569 1013.75 727.08 1016.03 726.1C1018.32 725.067 1020.11 723.68 1021.42 721.939C1022.78 720.144 1023.46 718.131 1023.46 715.9C1023.46 714.377 1023.19 713.072 1022.64 711.984C1022.15 710.896 1021.42 709.944 1020.44 709.128C1019.52 708.312 1018.37 707.605 1017.01 707.006C1015.71 706.353 1014.21 705.782 1012.53 705.293C1010.89 704.749 1009.13 704.205 1007.22 703.661C1004.61 702.899 1002.27 702.11 1000.2 701.294C998.192 700.478 996.451 699.499 994.982 698.357C993.568 697.214 992.48 695.854 991.718 694.277C991.011 692.699 990.657 690.768 990.657 688.483C990.657 686.253 991.092 684.213 991.963 682.363C992.888 680.513 994.166 678.909 995.798 677.549C997.43 676.189 999.307 675.155 1001.43 674.448C1003.6 673.686 1005.94 673.305 1008.45 673.305C1011.38 673.305 1013.94 673.741 1016.12 674.611C1018.35 675.427 1020.31 676.597 1021.99 678.12C1023.68 679.643 1025.2 681.438 1026.56 683.505L1023.54 686.443C1022.35 684.593 1021.01 682.989 1019.54 681.629C1018.07 680.269 1016.42 679.235 1014.57 678.528C1012.77 677.766 1010.73 677.385 1008.45 677.385C1005.83 677.385 1003.5 677.875 1001.43 678.854C999.416 679.779 997.811 681.085 996.614 682.771C995.417 684.457 994.819 686.389 994.819 688.565C994.819 690.088 995.091 691.421 995.635 692.563C996.233 693.705 997.131 694.712 998.328 695.582C999.579 696.398 1001.13 697.16 1002.98 697.867C1004.88 698.52 1007.14 699.173 1009.75 699.825C1012.42 700.478 1014.84 701.24 1017.01 702.11C1019.19 702.981 1021.07 704.014 1022.64 705.211C1024.28 706.408 1025.5 707.849 1026.32 709.536C1027.19 711.222 1027.62 713.262 1027.62 715.656C1027.62 718.702 1026.78 721.449 1025.09 723.897C1023.41 726.291 1021.09 728.195 1018.16 729.609C1015.22 730.969 1011.87 731.649 1008.12 731.649Z" fill="black"/>
<path opacity="0.5" d="M1235.29 668.002C1232.02 668.002 1229.08 667.485 1226.47 666.451C1223.86 665.472 1221.6 664.275 1219.7 662.861L1221.58 659.026C1222.66 659.951 1223.92 660.767 1225.33 661.474C1226.74 662.235 1228.29 662.834 1229.98 663.269C1231.72 663.704 1233.57 663.922 1235.53 663.922C1238.79 663.922 1241.62 663.242 1244.02 661.882C1246.41 660.576 1248.23 658.591 1249.48 655.925C1250.79 653.314 1251.44 650.05 1251.44 646.133V638.136L1252.58 637.075C1251.88 639.523 1250.65 641.727 1248.91 643.685C1247.17 645.643 1245.05 647.194 1242.55 648.336C1240.1 649.479 1237.43 650.05 1234.55 650.05C1230.69 650.05 1227.23 649.098 1224.19 647.194C1221.14 645.29 1218.72 642.679 1216.93 639.36C1215.18 636.042 1214.31 632.261 1214.31 628.018C1214.31 623.72 1215.21 619.912 1217.01 616.594C1218.86 613.275 1221.3 610.664 1224.35 608.76C1227.4 606.856 1230.8 605.904 1234.55 605.904C1236.29 605.904 1237.95 606.122 1239.53 606.557C1241.16 606.992 1242.66 607.591 1244.02 608.352C1245.43 609.114 1246.71 610.039 1247.85 611.127C1248.99 612.215 1249.95 613.411 1250.71 614.717C1251.52 616.023 1252.15 617.41 1252.58 618.879L1251.03 617.818L1251.44 606.802H1255.52V646.623C1255.52 650.05 1255.03 653.069 1254.05 655.68C1253.07 658.346 1251.66 660.576 1249.81 662.371C1248.01 664.221 1245.87 665.608 1243.36 666.533C1240.92 667.512 1238.22 668.002 1235.29 668.002ZM1235.12 645.97C1238.22 645.97 1241 645.208 1243.45 643.685C1245.95 642.107 1247.91 639.986 1249.32 637.32C1250.79 634.6 1251.52 631.472 1251.52 627.936C1251.52 624.455 1250.82 621.381 1249.4 618.715C1247.99 615.995 1246.03 613.874 1243.53 612.351C1241.08 610.773 1238.28 609.984 1235.12 609.984C1231.91 609.984 1229.06 610.773 1226.55 612.351C1224.11 613.874 1222.17 615.995 1220.76 618.715C1219.35 621.381 1218.64 624.455 1218.64 627.936C1218.64 631.363 1219.32 634.437 1220.68 637.157C1222.09 639.877 1224.02 642.026 1226.47 643.603C1228.97 645.181 1231.86 645.97 1235.12 645.97Z" fill="black"/>
<path opacity="0.5" d="M1172.16 649.234V606.802H1176.07L1176.48 615.778H1175.99C1176.59 613.983 1177.68 612.351 1179.26 610.882C1180.83 609.359 1182.71 608.162 1184.89 607.291C1187.12 606.367 1189.46 605.904 1191.9 605.904C1194.9 605.904 1197.43 606.53 1199.49 607.781C1201.62 609.032 1203.19 610.963 1204.23 613.575C1205.31 616.186 1205.86 619.504 1205.86 623.53V649.234H1201.78V623.693C1201.78 620.538 1201.34 617.954 1200.47 615.941C1199.66 613.874 1198.43 612.351 1196.8 611.371C1195.17 610.338 1193.13 609.821 1190.68 609.821C1188.56 609.821 1186.63 610.202 1184.89 610.963C1183.15 611.671 1181.62 612.65 1180.32 613.901C1179.01 615.152 1178.01 616.594 1177.3 618.226C1176.59 619.803 1176.24 621.49 1176.24 623.285V649.234H1174.2C1174.14 649.234 1173.95 649.234 1173.63 649.234C1173.35 649.234 1172.86 649.234 1172.16 649.234Z" fill="black"/>
<path opacity="0.5" d="M1154.27 649.234V606.802H1158.35V649.234H1154.27ZM1156.31 597.907C1155.12 597.907 1154.19 597.581 1153.54 596.928C1152.89 596.275 1152.56 595.378 1152.56 594.235C1152.56 593.147 1152.89 592.277 1153.54 591.624C1154.19 590.917 1155.12 590.563 1156.31 590.563C1157.51 590.563 1158.43 590.89 1159.09 591.543C1159.74 592.195 1160.07 593.093 1160.07 594.235C1160.07 595.323 1159.74 596.221 1159.09 596.928C1158.43 597.581 1157.51 597.907 1156.31 597.907Z" fill="black"/>
<path opacity="0.5" d="M1119.56 650.049C1115.7 650.049 1112.25 649.097 1109.2 647.193C1106.15 645.289 1103.73 642.678 1101.94 639.36C1100.2 636.041 1099.33 632.261 1099.33 628.018C1099.33 623.72 1100.22 619.912 1102.02 616.594C1103.87 613.275 1106.32 610.664 1109.36 608.76C1112.41 606.856 1115.81 605.904 1119.56 605.904C1121.74 605.904 1123.81 606.23 1125.76 606.883C1127.72 607.536 1129.49 608.461 1131.07 609.658C1132.65 610.8 1134.01 612.16 1135.15 613.738C1136.29 615.315 1137.11 617.029 1137.6 618.878L1136.21 617.491V588.85H1140.29V649.233H1136.37L1136.05 638.217L1137.6 637.075C1137.11 638.87 1136.29 640.557 1135.15 642.134C1134.01 643.712 1132.65 645.099 1131.07 646.296C1129.49 647.493 1127.72 648.417 1125.76 649.07C1123.81 649.723 1121.74 650.049 1119.56 650.049ZM1120.13 645.969C1123.23 645.969 1126.01 645.208 1128.46 643.685C1130.96 642.107 1132.92 639.985 1134.33 637.32C1135.8 634.6 1136.53 631.472 1136.53 627.936C1136.53 624.454 1135.83 621.381 1134.41 618.715C1133 615.995 1131.04 613.874 1128.54 612.35C1126.09 610.773 1123.29 609.984 1120.13 609.984C1116.92 609.984 1114.07 610.773 1111.57 612.35C1109.12 613.874 1107.19 615.995 1105.77 618.715C1104.36 621.381 1103.65 624.454 1103.65 627.936C1103.65 631.363 1104.33 634.437 1105.69 637.157C1107.1 639.877 1109.04 642.025 1111.48 643.603C1113.99 645.181 1116.87 645.969 1120.13 645.969Z" fill="black"/>
<path opacity="0.5" d="M1070 650.05C1066.13 650.05 1062.68 649.098 1059.63 647.194C1056.59 645.29 1054.17 642.679 1052.37 639.36C1050.63 636.042 1049.76 632.261 1049.76 628.018C1049.76 623.72 1050.66 619.912 1052.45 616.594C1054.3 613.275 1056.75 610.664 1059.8 608.76C1062.84 606.856 1066.24 605.904 1070 605.904C1072.17 605.904 1074.24 606.231 1076.2 606.883C1078.16 607.536 1079.92 608.461 1081.5 609.658C1083.08 610.8 1084.44 612.16 1085.58 613.738C1086.72 615.315 1087.54 617.029 1088.03 618.879L1086.4 617.818L1086.81 606.802H1090.72V649.234H1086.64V638.626L1088.03 637.075C1087.54 638.871 1086.72 640.557 1085.58 642.135C1084.44 643.712 1083.08 645.099 1081.5 646.296C1079.92 647.493 1078.16 648.418 1076.2 649.071C1074.24 649.723 1072.17 650.05 1070 650.05ZM1070.57 645.97C1073.67 645.97 1076.44 645.208 1078.89 643.685C1081.39 642.107 1083.35 639.986 1084.77 637.32C1086.23 634.6 1086.97 631.472 1086.97 627.936C1086.97 624.455 1086.26 621.381 1084.85 618.715C1083.43 615.995 1081.47 613.874 1078.97 612.351C1076.52 610.773 1073.72 609.984 1070.57 609.984C1067.36 609.984 1064.5 610.773 1062 612.351C1059.55 613.874 1057.62 615.995 1056.21 618.715C1054.79 621.381 1054.08 624.455 1054.08 627.936C1054.08 631.363 1054.76 634.437 1056.12 637.157C1057.54 639.877 1059.47 642.026 1061.92 643.603C1064.42 645.181 1067.3 645.97 1070.57 645.97Z" fill="black"/>
<path opacity="0.5" d="M1026.81 649.234V606.802H1030.73L1031.13 616.267H1030.56C1031.16 614.472 1032.09 612.786 1033.34 611.208C1034.59 609.631 1036.11 608.352 1037.91 607.373C1039.76 606.394 1041.88 605.904 1044.27 605.904C1045.2 605.904 1046.04 605.986 1046.8 606.149C1047.62 606.258 1048.35 606.394 1049 606.557L1047.78 611.29C1047.02 610.963 1046.28 610.746 1045.58 610.637C1044.87 610.528 1044.24 610.474 1043.7 610.474C1041.52 610.474 1039.62 610.855 1037.99 611.616C1036.41 612.378 1035.08 613.439 1033.99 614.799C1032.96 616.104 1032.17 617.6 1031.62 619.287C1031.13 620.973 1030.89 622.741 1030.89 624.591V649.234H1026.81Z" fill="black"/>
<path opacity="0.5" d="M1002.33 649.233V596.194H985.597V592.114H1023.7V596.194H1006.41V649.233H1002.33Z" fill="black"/>
<path d="M962.284 394.55L882.021 468.027V447.954H592.839V731.999H471.561V447.954H257.028V346.667H882.021V324L962.284 394.55Z" fill="#1A202C"/>
<path d="M88 731.999V346.667H264.099C290.933 346.667 314.786 352.355 335.657 363.731C356.528 375.108 372.926 390.705 384.853 410.522C396.779 430.339 402.742 453.092 402.742 478.781C402.742 505.57 396.779 529.424 384.853 550.342C372.926 571.26 356.528 587.775 335.657 599.885C314.786 611.629 290.933 617.5 264.099 617.5H208.754V731.999H88ZM206.517 516.213H241.737C248.818 516.213 255.154 514.929 260.745 512.36C266.335 509.424 270.621 505.387 273.603 500.249C276.957 495.111 278.634 488.689 278.634 480.983C278.634 473.276 276.957 467.037 273.603 462.266C270.621 457.496 266.335 454.009 260.745 451.807C255.154 449.239 248.818 447.954 241.737 447.954H206.517V516.213Z" fill="#1A202C"/>
<path d="M762.835 454.011C762.131 455.662 761.778 457.534 761.778 459.627C761.778 464.201 763.832 468.072 767.938 471.239C772.419 474.054 777.833 476.519 784.181 478.63C790.901 480.741 797.436 482.501 803.783 483.908C810.504 484.964 816.105 485.843 820.586 486.547C841.122 490.066 859.978 494.993 877.153 501.327C894.329 507.309 909.264 515.051 921.959 524.553C935.027 533.702 944.922 545.315 951.643 559.391C958.737 573.115 962.284 589.479 962.284 608.481C962.284 635.577 955.003 658.275 940.441 676.574C926.253 694.873 907.023 708.773 882.754 718.274C858.484 727.424 831.413 731.999 801.543 731.999C772.046 731.999 745.909 729.008 723.133 723.025C700.73 716.691 680.941 707.893 663.766 696.633C646.964 685.372 631.84 672.176 618.398 657.044L688.408 583.145C707.077 605.666 726.494 620.622 746.656 628.012C767.192 635.05 786.422 638.568 804.344 638.568C811.438 638.568 817.785 638.041 823.386 636.985C828.986 635.578 833.281 633.466 836.268 630.651C839.254 627.836 840.748 623.964 840.748 619.038C840.748 614.464 839.068 610.593 835.708 607.426C832.721 604.259 828.613 601.619 823.386 599.508C818.159 597.045 812.371 595.109 806.023 593.701C800.05 591.942 794.075 590.534 788.102 589.479C782.501 588.423 777.46 587.367 772.979 586.312C750.577 581.385 730.974 575.402 714.172 568.364C697.37 561.326 683.367 552.881 672.166 543.027C660.965 533.174 652.564 521.913 646.963 509.245C641.736 496.577 639.122 482.325 639.122 466.489C639.122 462.241 639.366 458.081 639.847 454.011H762.835Z" fill="#1A202C"/>
</svg>
